<svg width="140" height="32" viewBox="0 0 140 32" fill="none" xmlns="http://www.w3.org/2000/svg">
<path d="M22.4862 7.38462H10.473V24.6154V32H3.08031V0H22.4862V7.38462Z" fill="url(#paint0_linear_6_27)"/>
<path d="M19.4059 0H26.7987V32H7.39274V24.6154H19.4059V0Z" fill="#017EEE"/>
<path d="M19.4059 0H26.7987V32H7.39274V24.6154H19.4059V0Z" fill="url(#paint1_linear_6_27)"/>
<path d="M19.4059 7.38462H7.39274V24.6154V32H0V0H19.4059V7.38462Z" fill="url(#paint2_linear_6_27)"/>
<path d="M22.4862 0H29.879V32H10.473V24.6154H22.4862V0Z" fill="url(#paint3_linear_6_27)"/>
<path d="M19.4059 0V7.38462H7.39274V32H0V0H19.4059Z" fill="url(#paint4_linear_6_27)"/>
<path d="M7.39274 24.6154V32H0V12.3077L0.3912 13.7631C1.54016 18.0215 3.98592 21.8123 7.39274 24.6154Z" fill="url(#paint5_linear_6_27)"/>
<path d="M44.07 19.78H48.67V22H41.27V8.04H44.07V19.78ZM51.8697 9.6C51.3763 9.6 50.963 9.44667 50.6297 9.14C50.3097 8.82 50.1497 8.42667 50.1497 7.96C50.1497 7.49333 50.3097 7.10667 50.6297 6.8C50.963 6.48 51.3763 6.32 51.8697 6.32C52.363 6.32 52.7697 6.48 53.0897 6.8C53.423 7.10667 53.5897 7.49333 53.5897 7.96C53.5897 8.42667 53.423 8.82 53.0897 9.14C52.7697 9.44667 52.363 9.6 51.8697 9.6ZM53.2497 10.92V22H50.4497V10.92H53.2497ZM60.3561 10.74C61.1827 10.74 61.9094 10.9067 62.5361 11.24C63.1627 11.56 63.6561 11.98 64.0161 12.5V10.92H66.8361V22.08C66.8361 23.1067 66.6294 24.02 66.2161 24.82C65.8027 25.6333 65.1827 26.2733 64.3561 26.74C63.5294 27.22 62.5294 27.46 61.3561 27.46C59.7827 27.46 58.4894 27.0933 57.4761 26.36C56.4761 25.6267 55.9094 24.6267 55.7761 23.36H58.5561C58.7027 23.8667 59.0161 24.2667 59.4961 24.56C59.9894 24.8667 60.5827 25.02 61.2761 25.02C62.0894 25.02 62.7494 24.7733 63.2561 24.28C63.7627 23.8 64.0161 23.0667 64.0161 22.08V20.36C63.6561 20.88 63.1561 21.3133 62.5161 21.66C61.8894 22.0067 61.1694 22.18 60.3561 22.18C59.4227 22.18 58.5694 21.94 57.7961 21.46C57.0227 20.98 56.4094 20.3067 55.9561 19.44C55.5161 18.56 55.2961 17.5533 55.2961 16.42C55.2961 15.3 55.5161 14.3067 55.9561 13.44C56.4094 12.5733 57.0161 11.9067 57.7761 11.44C58.5494 10.9733 59.4094 10.74 60.3561 10.74ZM64.0161 16.46C64.0161 15.78 63.8827 15.2 63.6161 14.72C63.3494 14.2267 62.9894 13.8533 62.5361 13.6C62.0827 13.3333 61.5961 13.2 61.0761 13.2C60.5561 13.2 60.0761 13.3267 59.6361 13.58C59.1961 13.8333 58.8361 14.2067 58.5561 14.7C58.2894 15.18 58.1561 15.7533 58.1561 16.42C58.1561 17.0867 58.2894 17.6733 58.5561 18.18C58.8361 18.6733 59.1961 19.0533 59.6361 19.32C60.0894 19.5867 60.5694 19.72 61.0761 19.72C61.5961 19.72 62.0827 19.5933 62.5361 19.34C62.9894 19.0733 63.3494 18.7 63.6161 18.22C63.8827 17.7267 64.0161 17.14 64.0161 16.46ZM75.8108 10.76C76.6508 10.76 77.3974 10.9467 78.0508 11.32C78.7041 11.68 79.2108 12.22 79.5708 12.94C79.9441 13.6467 80.1308 14.5 80.1308 15.5V22H77.3308V15.88C77.3308 15 77.1108 14.3267 76.6708 13.86C76.2308 13.38 75.6308 13.14 74.8708 13.14C74.0974 13.14 73.4841 13.38 73.0308 13.86C72.5908 14.3267 72.3708 15 72.3708 15.88V22H69.5708V7.2H72.3708V12.3C72.7308 11.82 73.2108 11.4467 73.8108 11.18C74.4108 10.9 75.0774 10.76 75.8108 10.76ZM86.0534 13.22V18.58C86.0534 18.9533 86.1401 19.2267 86.3134 19.4C86.5001 19.56 86.8068 19.64 87.2334 19.64H88.5334V22H86.7734C84.4134 22 83.2334 20.8533 83.2334 18.56V13.22H81.9134V10.92H83.2334V8.18H86.0534V10.92H88.5334V13.22H86.0534ZM94.593 16.42C94.593 15.3 94.813 14.3067 95.253 13.44C95.7063 12.5733 96.313 11.9067 97.073 11.44C97.8463 10.9733 98.7063 10.74 99.653 10.74C100.48 10.74 101.2 10.9067 101.813 11.24C102.44 11.5733 102.94 11.9933 103.313 12.5V10.92H106.133V22H103.313V20.38C102.953 20.9 102.453 21.3333 101.813 21.68C101.186 22.0133 100.46 22.18 99.633 22.18C98.6996 22.18 97.8463 21.94 97.073 21.46C96.313 20.98 95.7063 20.3067 95.253 19.44C94.813 18.56 94.593 17.5533 94.593 16.42ZM103.313 16.46C103.313 15.78 103.18 15.2 102.913 14.72C102.646 14.2267 102.286 13.8533 101.833 13.6C101.38 13.3333 100.893 13.2 100.373 13.2C99.853 13.2 99.373 13.3267 98.933 13.58C98.493 13.8333 98.133 14.2067 97.853 14.7C97.5863 15.18 97.453 15.7533 97.453 16.42C97.453 17.0867 97.5863 17.6733 97.853 18.18C98.133 18.6733 98.493 19.0533 98.933 19.32C99.3863 19.5867 99.8663 19.72 100.373 19.72C100.893 19.72 101.38 19.5933 101.833 19.34C102.286 19.0733 102.646 18.7 102.913 18.22C103.18 17.7267 103.313 17.14 103.313 16.46ZM111.668 12.54C112.028 12.0067 112.521 11.5733 113.148 11.24C113.788 10.9067 114.514 10.74 115.328 10.74C116.274 10.74 117.128 10.9733 117.888 11.44C118.661 11.9067 119.268 12.5733 119.708 13.44C120.161 14.2933 120.388 15.2867 120.388 16.42C120.388 17.5533 120.161 18.56 119.708 19.44C119.268 20.3067 118.661 20.98 117.888 21.46C117.128 21.94 116.274 22.18 115.328 22.18C114.501 22.18 113.774 22.02 113.148 21.7C112.534 21.3667 112.041 20.94 111.668 20.42V22H108.868V7.2H111.668V12.54ZM117.528 16.42C117.528 15.7533 117.388 15.18 117.108 14.7C116.841 14.2067 116.481 13.8333 116.028 13.58C115.588 13.3267 115.108 13.2 114.588 13.2C114.081 13.2 113.601 13.3333 113.148 13.6C112.708 13.8533 112.348 14.2267 112.068 14.72C111.801 15.2133 111.668 15.7933 111.668 16.46C111.668 17.1267 111.801 17.7067 112.068 18.2C112.348 18.6933 112.708 19.0733 113.148 19.34C113.601 19.5933 114.081 19.72 114.588 19.72C115.108 19.72 115.588 19.5867 116.028 19.32C116.481 19.0533 116.841 18.6733 117.108 18.18C117.388 17.6867 117.528 17.1 117.528 16.42ZM125.222 7.2V22H122.422V7.2H125.222ZM138.289 16.22C138.289 16.62 138.262 16.98 138.209 17.3H130.109C130.175 18.1 130.455 18.7267 130.949 19.18C131.442 19.6333 132.049 19.86 132.769 19.86C133.809 19.86 134.549 19.4133 134.989 18.52H138.009C137.689 19.5867 137.075 20.4667 136.169 21.16C135.262 21.84 134.149 22.18 132.829 22.18C131.762 22.18 130.802 21.9467 129.949 21.48C129.109 21 128.449 20.3267 127.969 19.46C127.502 18.5933 127.269 17.5933 127.269 16.46C127.269 15.3133 127.502 14.3067 127.969 13.44C128.435 12.5733 129.089 11.9067 129.929 11.44C130.769 10.9733 131.735 10.74 132.829 10.74C133.882 10.74 134.822 10.9667 135.649 11.42C136.489 11.8733 137.135 12.52 137.589 13.36C138.055 14.1867 138.289 15.14 138.289 16.22ZM135.389 15.42C135.375 14.7 135.115 14.1267 134.609 13.7C134.102 13.26 133.482 13.04 132.749 13.04C132.055 13.04 131.469 13.2533 130.989 13.68C130.522 14.0933 130.235 14.6733 130.129 15.42H135.389Z" fill="#1D2630"/>
<defs>
<linearGradient id="paint0_linear_6_27" x1="-4.80057" y1="33.8799" x2="8.81033" y2="12.8122" gradientUnits="userSpaceOnUse">
<stop stop-color="#00F9A3"/>
<stop offset="0.1242" stop-color="#00EEA8"/>
<stop offset="0.3455" stop-color="#00CFB6"/>
<stop offset="0.6381" stop-color="#009ECC"/>
<stop offset="0.9875" stop-color="#005AEA"/>
<stop offset="0.9969" stop-color="#0058EB"/>
</linearGradient>
<linearGradient id="paint1_linear_6_27" x1="4.90838" y1="16.0001" x2="15.2533" y2="16.0001" gradientUnits="userSpaceOnUse">
<stop stop-color="#1D002A"/>
<stop offset="1" stop-color="#5E42A4" stop-opacity="0"/>
</linearGradient>
<linearGradient id="paint2_linear_6_27" x1="0.0624687" y1="33.7026" x2="10.8417" y2="0.0720892" gradientUnits="userSpaceOnUse">
<stop stop-color="#00F9A3"/>
<stop offset="0.1242" stop-color="#00EEA8"/>
<stop offset="0.3455" stop-color="#00CFB6"/>
<stop offset="0.6381" stop-color="#009ECC"/>
<stop offset="0.9875" stop-color="#005AEA"/>
<stop offset="0.9969" stop-color="#0058EB"/>
</linearGradient>
<linearGradient id="paint3_linear_6_27" x1="30.5845" y1="3.22382" x2="18.0247" y2="33.5576" gradientUnits="userSpaceOnUse">
<stop stop-color="#2AB6F7"/>
<stop offset="1" stop-color="#3FECC1"/>
</linearGradient>
<linearGradient id="paint4_linear_6_27" x1="26.7918" y1="18.6081" x2="11.6925" y2="16.2987" gradientUnits="userSpaceOnUse">
<stop stop-color="#1D002A"/>
<stop offset="1" stop-color="#5E42A4" stop-opacity="0"/>
</linearGradient>
<linearGradient id="paint5_linear_6_27" x1="7.77337" y1="33.743" x2="-2.67345" y2="18.1348" gradientUnits="userSpaceOnUse">
<stop stop-color="#1D002A" stop-opacity="0.5"/>
<stop offset="1" stop-color="#00BABB" stop-opacity="0"/>
</linearGradient>
</defs>
</svg>
